<?xml version="1.0" encoding="UTF-8" ?>
<!DOCTYPE svg PUBLIC "-//W3C//DTD SVG 1.1//EN" "http://www.w3.org/Graphics/SVG/1.1/DTD/svg11.dtd">
<svg width="290pt" height="290pt" viewBox="0 0 290 290" version="1.1" xmlns="http://www.w3.org/2000/svg">
<g id="#fefeffff">
<path fill="#fefeff" opacity="1.00" d=" M 0.00 0.00 L 290.00 0.00 L 290.00 290.00 L 0.00 290.00 L 0.00 0.00 M 132.39 2.46 C 106.79 4.67 81.61 13.54 60.94 28.94 C 54.37 33.59 48.40 39.03 42.55 44.53 C 29.58 58.63 18.38 74.70 11.54 92.68 C -1.95 126.65 -1.78 165.85 12.40 199.58 C 18.59 215.21 28.27 229.19 39.12 241.93 C 44.40 248.66 51.67 253.33 57.97 259.01 C 80.03 275.89 107.18 286.20 134.95 287.72 C 145.67 287.52 156.55 288.58 167.13 286.29 C 179.14 284.32 191.23 281.66 202.17 276.15 C 231.23 263.87 255.04 240.85 270.50 213.56 C 281.43 192.49 288.20 168.87 287.39 145.00 C 287.95 128.79 284.86 112.62 279.64 97.32 C 275.60 86.64 271.02 76.04 264.31 66.73 C 259.07 58.19 252.32 50.75 245.67 43.32 C 239.42 37.88 233.47 32.02 226.43 27.56 C 220.27 23.20 213.98 18.93 206.98 16.03 C 183.94 4.90 157.87 0.32 132.39 2.46 Z" />
<path fill="#fefeff" opacity="1.00" d=" M 85.91 34.92 C 94.85 31.83 104.71 33.97 113.00 37.97 C 125.00 43.46 135.01 52.20 144.83 60.82 C 155.73 50.62 167.64 40.85 181.84 35.71 C 190.38 32.70 200.73 32.08 208.45 37.51 C 215.61 42.36 219.14 50.83 220.86 59.00 C 223.41 73.69 220.33 88.48 217.62 102.90 C 230.96 106.97 244.30 112.03 255.44 120.61 C 262.10 126.00 268.26 133.14 269.27 141.97 C 270.48 150.66 266.18 159.15 260.04 165.04 C 248.44 176.43 232.76 182.02 217.63 187.00 C 219.16 195.95 221.62 204.81 221.68 213.95 C 222.08 224.18 221.41 235.00 216.02 244.01 C 211.81 251.43 203.60 256.44 195.03 256.44 C 184.45 256.56 174.73 251.47 165.98 246.03 C 158.19 241.18 151.59 234.78 144.49 229.02 C 133.65 239.08 121.94 248.81 107.87 253.93 C 100.28 256.75 91.46 257.67 83.99 254.04 C 76.05 250.19 71.06 242.01 69.22 233.61 C 65.62 218.16 68.47 202.20 71.90 187.00 C 58.34 182.64 44.56 177.74 33.35 168.66 C 26.57 163.32 20.81 155.83 19.93 147.01 C 18.99 137.95 24.02 129.43 30.57 123.58 C 42.10 112.95 57.15 107.57 71.81 102.82 C 68.60 87.37 65.45 71.20 69.39 55.57 C 71.40 46.72 77.13 38.14 85.91 34.92 M 88.66 45.64 C 83.21 48.04 80.78 54.09 79.61 59.55 C 77.00 72.96 79.63 86.63 82.41 99.79 C 87.03 98.81 91.71 98.07 96.40 97.55 C 95.28 101.33 94.51 105.28 92.69 108.81 C 90.57 109.81 88.21 110.15 85.95 110.69 C 88.62 122.11 93.83 132.66 98.84 143.19 C 101.46 149.95 105.24 156.17 108.27 162.75 C 105.57 165.38 103.01 168.15 100.54 171.00 C 98.12 166.87 95.75 162.70 93.25 158.61 C 90.26 165.11 87.93 171.89 85.77 178.71 C 87.81 179.44 89.85 180.16 91.89 180.89 C 89.75 183.89 87.94 187.11 86.52 190.51 C 85.14 190.44 83.77 190.38 82.40 190.32 C 79.60 202.84 77.24 215.85 79.37 228.66 C 80.37 234.02 82.12 239.96 86.94 243.13 C 91.64 246.35 97.81 245.75 102.97 244.06 C 114.81 240.08 124.83 232.23 133.98 223.94 C 136.01 222.56 135.72 220.17 135.42 218.06 C 141.96 218.39 148.54 218.21 155.02 217.17 C 154.39 218.70 153.75 220.23 153.11 221.76 C 162.91 230.68 173.28 239.70 186.06 243.99 C 191.46 245.79 198.01 246.42 202.87 242.88 C 207.49 239.44 209.16 233.50 210.14 228.09 C 211.90 215.32 209.81 202.42 206.90 189.98 C 202.17 190.92 197.42 191.80 192.69 192.72 C 193.96 188.70 195.27 184.69 196.61 180.70 C 199.01 180.06 201.40 179.42 203.80 178.76 C 200.63 169.29 196.90 160.01 193.22 150.73 C 188.12 141.18 183.40 131.43 178.02 122.04 C 180.28 118.78 182.84 115.73 185.62 112.90 C 189.20 119.00 192.43 125.29 196.06 131.35 C 199.09 124.68 201.39 117.72 203.91 110.85 C 199.28 109.81 194.64 108.77 189.95 107.97 C 191.75 104.73 193.25 101.33 194.43 97.82 C 198.59 98.26 202.74 98.81 206.82 99.79 C 209.92 87.15 211.97 73.97 210.04 60.99 C 208.87 55.24 206.79 48.66 201.14 45.87 C 195.60 43.37 189.15 44.47 183.67 46.57 C 171.96 51.31 162.11 59.54 153.01 68.11 C 153.77 69.69 154.55 71.27 155.31 72.86 C 148.04 72.57 140.72 72.31 133.50 73.46 C 134.44 71.81 135.38 70.17 136.34 68.54 C 128.12 59.90 118.49 52.37 107.59 47.41 C 101.75 44.83 94.82 43.21 88.66 45.64 M 44.40 126.43 C 38.34 130.65 31.55 136.11 30.87 144.02 C 30.37 151.98 36.92 157.88 42.77 162.19 C 52.51 168.59 63.38 173.36 74.72 176.06 C 77.91 166.15 81.52 156.38 85.92 146.94 C 87.15 144.69 85.69 142.33 84.87 140.23 C 80.73 131.73 77.71 122.76 74.83 113.76 C 64.04 116.14 53.86 120.80 44.40 126.43 M 205.38 138.40 C 204.11 141.41 202.07 144.80 203.91 148.04 C 208.14 157.19 211.44 166.71 214.96 176.15 C 226.42 172.85 237.73 168.41 247.53 161.52 C 252.88 157.56 258.46 152.16 258.43 145.00 C 258.62 137.78 252.92 132.40 247.63 128.35 C 237.81 121.34 226.41 116.87 214.86 113.59 C 211.75 121.88 209.13 130.36 205.38 138.40 Z" />
<path fill="#fefeff" opacity="1.00" d=" M 108.13 98.11 C 116.04 87.74 129.20 82.46 141.97 81.90 C 157.65 80.93 173.51 87.04 184.69 98.03 C 180.14 103.76 176.23 110.13 170.86 115.13 C 168.80 115.02 167.14 113.52 165.39 112.58 C 157.32 107.18 146.87 104.56 137.39 107.35 C 132.79 108.61 129.11 113.09 129.75 118.00 C 130.06 122.56 134.50 125.00 138.15 126.80 C 147.94 131.24 158.20 134.58 167.93 139.16 C 174.75 142.51 181.11 147.47 184.63 154.34 C 190.41 165.80 189.46 180.44 181.93 190.89 C 175.89 199.75 165.93 205.28 155.60 207.51 C 134.76 211.81 111.79 205.81 96.35 191.01 C 101.41 184.44 106.91 178.23 112.29 171.93 C 120.27 177.64 128.93 183.31 138.97 184.21 C 144.47 184.59 150.63 184.68 155.29 181.30 C 160.11 177.84 160.96 169.71 156.09 165.93 C 150.95 161.89 144.54 160.03 138.67 157.33 C 128.61 152.91 117.36 149.66 109.81 141.19 C 98.87 129.81 98.24 110.34 108.13 98.11 Z" />
</g>
<g id="#35bdb3ff">
<path fill="#35bdb3" opacity="1.00" d=" M 132.39 2.46 C 157.87 0.32 183.94 4.90 206.98 16.03 C 213.98 18.93 220.27 23.20 226.43 27.56 C 233.47 32.02 239.42 37.88 245.67 43.32 C 252.32 50.75 259.07 58.19 264.31 66.73 C 271.02 76.04 275.60 86.64 279.64 97.32 C 284.86 112.62 287.95 128.79 287.39 145.00 C 288.20 168.87 281.43 192.49 270.50 213.56 C 255.04 240.85 231.23 263.87 202.17 276.15 C 191.23 281.66 179.14 284.32 167.13 286.29 C 156.55 288.58 145.67 287.52 134.95 287.72 C 107.18 286.20 80.03 275.89 57.97 259.01 C 51.67 253.33 44.40 248.66 39.12 241.93 C 28.27 229.19 18.59 215.21 12.40 199.58 C -1.78 165.85 -1.95 126.65 11.54 92.68 C 18.38 74.70 29.58 58.63 42.55 44.53 C 48.40 39.03 54.37 33.59 60.94 28.94 C 81.61 13.54 106.79 4.67 132.39 2.46 M 85.91 34.92 C 77.13 38.14 71.40 46.72 69.39 55.57 C 65.45 71.20 68.60 87.37 71.81 102.82 C 57.15 107.57 42.10 112.95 30.57 123.58 C 24.02 129.43 18.99 137.95 19.93 147.01 C 20.81 155.83 26.57 163.32 33.35 168.66 C 44.56 177.74 58.34 182.64 71.90 187.00 C 68.47 202.20 65.62 218.16 69.22 233.61 C 71.06 242.01 76.05 250.19 83.99 254.04 C 91.46 257.67 100.28 256.75 107.87 253.93 C 121.94 248.81 133.65 239.08 144.49 229.02 C 151.59 234.78 158.19 241.18 165.98 246.03 C 174.73 251.47 184.45 256.56 195.03 256.44 C 203.60 256.44 211.81 251.43 216.02 244.01 C 221.41 235.00 222.08 224.18 221.68 213.95 C 221.62 204.81 219.16 195.95 217.63 187.00 C 232.76 182.02 248.44 176.43 260.04 165.04 C 266.18 159.15 270.48 150.66 269.27 141.97 C 268.26 133.14 262.10 126.00 255.44 120.61 C 244.30 112.03 230.96 106.97 217.62 102.90 C 220.33 88.48 223.41 73.69 220.86 59.00 C 219.14 50.83 215.61 42.36 208.45 37.51 C 200.73 32.08 190.38 32.70 181.84 35.71 C 167.64 40.85 155.73 50.62 144.83 60.82 C 135.01 52.20 125.00 43.46 113.00 37.97 C 104.71 33.97 94.85 31.83 85.91 34.92 Z" />
<path fill="#35bdb3" opacity="1.00" d=" M 88.66 45.64 C 94.82 43.21 101.75 44.83 107.59 47.41 C 118.49 52.37 128.12 59.90 136.34 68.54 C 135.38 70.17 134.44 71.81 133.50 73.46 C 140.72 72.31 148.04 72.57 155.31 72.86 C 154.55 71.27 153.77 69.69 153.01 68.11 C 162.11 59.54 171.96 51.31 183.67 46.57 C 189.15 44.47 195.60 43.37 201.14 45.87 C 206.79 48.66 208.87 55.24 210.04 60.99 C 211.97 73.97 209.92 87.15 206.82 99.79 C 202.74 98.81 198.59 98.26 194.43 97.82 C 193.25 101.33 191.75 104.73 189.95 107.97 C 194.64 108.77 199.28 109.81 203.91 110.85 C 201.39 117.72 199.09 124.68 196.06 131.35 C 192.43 125.29 189.20 119.00 185.62 112.90 C 182.84 115.73 180.28 118.78 178.02 122.04 C 183.40 131.43 188.12 141.18 193.22 150.73 C 196.90 160.01 200.63 169.29 203.80 178.76 C 201.40 179.42 199.01 180.06 196.61 180.70 C 195.27 184.69 193.96 188.70 192.69 192.72 C 197.42 191.80 202.17 190.92 206.90 189.98 C 209.81 202.42 211.90 215.32 210.14 228.09 C 209.16 233.50 207.49 239.44 202.87 242.88 C 198.01 246.42 191.46 245.79 186.06 243.99 C 173.28 239.70 162.91 230.68 153.11 221.76 C 153.75 220.23 154.39 218.70 155.02 217.17 C 148.54 218.21 141.96 218.39 135.42 218.06 C 135.72 220.17 136.01 222.56 133.98 223.94 C 124.83 232.23 114.81 240.08 102.97 244.06 C 97.81 245.75 91.64 246.35 86.94 243.13 C 82.12 239.96 80.37 234.02 79.37 228.66 C 77.24 215.85 79.60 202.84 82.40 190.32 C 83.77 190.38 85.14 190.44 86.52 190.51 C 87.94 187.11 89.75 183.89 91.89 180.89 C 89.85 180.16 87.81 179.44 85.77 178.71 C 87.93 171.89 90.26 165.11 93.25 158.61 C 95.75 162.70 98.12 166.87 100.54 171.00 C 103.01 168.15 105.57 165.38 108.27 162.75 C 105.24 156.17 101.46 149.95 98.84 143.19 C 93.83 132.66 88.62 122.11 85.95 110.69 C 88.21 110.15 90.57 109.81 92.69 108.81 C 94.51 105.28 95.28 101.33 96.40 97.55 C 91.71 98.07 87.03 98.81 82.41 99.79 C 79.63 86.63 77.00 72.96 79.61 59.55 C 80.78 54.09 83.21 48.04 88.66 45.64 M 108.13 98.11 C 98.24 110.34 98.87 129.81 109.81 141.19 C 117.36 149.66 128.61 152.91 138.67 157.33 C 144.54 160.03 150.95 161.89 156.09 165.93 C 160.96 169.71 160.11 177.84 155.29 181.30 C 150.63 184.68 144.47 184.59 138.97 184.21 C 128.93 183.31 120.27 177.64 112.29 171.93 C 106.91 178.23 101.41 184.44 96.35 191.01 C 111.79 205.81 134.76 211.81 155.60 207.51 C 165.93 205.28 175.89 199.75 181.93 190.89 C 189.46 180.44 190.41 165.80 184.63 154.34 C 181.11 147.47 174.75 142.51 167.93 139.16 C 158.20 134.58 147.94 131.24 138.15 126.80 C 134.50 125.00 130.06 122.56 129.75 118.00 C 129.11 113.09 132.79 108.61 137.39 107.35 C 146.87 104.56 157.32 107.18 165.39 112.58 C 167.14 113.52 168.80 115.02 170.86 115.13 C 176.23 110.13 180.14 103.76 184.69 98.03 C 173.51 87.04 157.65 80.93 141.97 81.90 C 129.20 82.46 116.04 87.74 108.13 98.11 Z" />
<path fill="#35bdb3" opacity="1.00" d=" M 44.40 126.43 C 53.86 120.80 64.04 116.14 74.83 113.76 C 77.71 122.76 80.73 131.73 84.87 140.23 C 85.69 142.33 87.15 144.69 85.92 146.94 C 81.52 156.38 77.91 166.15 74.72 176.06 C 63.38 173.36 52.51 168.59 42.77 162.19 C 36.92 157.88 30.37 151.98 30.87 144.02 C 31.55 136.11 38.34 130.65 44.40 126.43 Z" />
<path fill="#35bdb3" opacity="1.00" d=" M 205.38 138.40 C 209.13 130.36 211.75 121.88 214.86 113.59 C 226.41 116.87 237.81 121.34 247.63 128.35 C 252.92 132.40 258.62 137.78 258.43 145.00 C 258.46 152.16 252.88 157.56 247.53 161.52 C 237.73 168.41 226.42 172.85 214.96 176.15 C 211.44 166.71 208.14 157.19 203.91 148.04 C 202.07 144.80 204.11 141.41 205.38 138.40 Z" />
</g>
</svg>
